# xmcd CD database file
#
# Track frame offsets:
#	187
#	38035
#	64540
#	88392
#	109187
#	137687
#	185550
#	207602
#
# Disc length: 3564 seconds
#
# Revision: 0
# Processed by: cddbd v1.5.1PL0 Copyright (c) Steve Scherf et al.
# Submitted via: CDex 1.51
#
DISCID=750dea08
DTITLE=寺田恵子 - 悪い夢
DYEAR=1900
DGENRE=Hard Rock
TTITLE0=六月の詩
TTITLE1=悪い夢
TTITLE2=午前1時のスケッチ
TTITLE3=崩壊の前日
TTITLE4=火の鳥
TTITLE5=閉ざされた街
TTITLE6=空へ
TTITLE7=私は風
EXTD=
EXTT0=
EXTT1=
EXTT2=
EXTT3=
EXTT4=
EXTT5=
EXTT6=
EXTT7=
PLAYORDER=
